<svg width="24" height="24" viewBox="0 0 24 24" fill="none" xmlns="http://www.w3.org/2000/svg">
<path d="M6.15409 12.0005V8.15681C6.1655 7.40127 6.32589 6.65543 6.62606 5.96197C6.92622 5.26854 7.36027 4.64114 7.90333 4.11573C8.44638 3.59033 9.08778 3.17724 9.79076 2.90014C10.4937 2.62304 11.2445 2.48738 12 2.50092C12.7555 2.48738 13.5062 2.62304 14.2092 2.90014C14.9122 3.17724 15.5536 3.59033 16.0966 4.11573C16.6397 4.64114 17.0738 5.26854 17.374 5.96197C17.674 6.65543 17.8345 7.40127 17.8459 8.15681V12.0005" stroke="white" stroke-width="1.5" stroke-linecap="round" stroke-linejoin="round"/>
<path d="M3.96191 9.80859H5.42338C5.61719 9.80859 5.80306 9.88558 5.94008 10.0226C6.07713 10.1597 6.15412 10.3455 6.15412 10.5393V14.9237C6.15412 15.1175 6.07713 15.3034 5.94008 15.4404C5.80306 15.5775 5.61719 15.6545 5.42338 15.6545H3.96191C3.5743 15.6545 3.20257 15.5005 2.92849 15.2264C2.65441 14.9523 2.50043 14.5806 2.50043 14.193V11.2701C2.50043 10.8825 2.65441 10.5107 2.92849 10.2366C3.20257 9.96257 3.5743 9.80859 3.96191 9.80859Z" stroke="white" stroke-width="1.5" stroke-linecap="round" stroke-linejoin="round"/>
<path d="M20.0381 15.6545H18.5766C18.3828 15.6545 18.1969 15.5775 18.0598 15.4404C17.9229 15.3034 17.8459 15.1175 17.8459 14.9237V10.5393C17.8459 10.3455 17.9229 10.1597 18.0598 10.0226C18.1969 9.88558 18.3828 9.80859 18.5766 9.80859H20.0381C20.4257 9.80859 20.7975 9.96257 21.0715 10.2366C21.3455 10.5107 21.4996 10.8825 21.4996 11.2701V14.193C21.4996 14.5806 21.3455 14.9523 21.0715 15.2264C20.7975 15.5005 20.4257 15.6545 20.0381 15.6545Z" stroke="white" stroke-width="1.5" stroke-linecap="round" stroke-linejoin="round"/>
<path d="M14.9231 19.6741C15.6983 19.6741 16.4417 19.3662 16.9899 18.818C17.5381 18.2698 17.846 17.5264 17.846 16.7512V13.4629" stroke="white" stroke-width="1.5" stroke-linecap="round" stroke-linejoin="round"/>
<path d="M14.923 19.6725C14.923 20.157 14.7306 20.6218 14.388 20.9643C14.0454 21.3069 13.5807 21.4994 13.0962 21.4994H10.904C10.4195 21.4994 9.95483 21.3069 9.61223 20.9643C9.26963 20.6218 9.07716 20.157 9.07716 19.6725C9.07716 19.1881 9.26963 18.7233 9.61223 18.3807C9.95483 18.0382 10.4195 17.8457 10.904 17.8457H13.0962C13.5807 17.8457 14.0454 18.0382 14.388 18.3807C14.7306 18.7233 14.923 19.1881 14.923 19.6725Z" stroke="white" stroke-width="1.5" stroke-linecap="round" stroke-linejoin="round"/>
</svg>
