<svg width="22" height="22" viewBox="0 0 22 22" fill="none" xmlns="http://www.w3.org/2000/svg">
<path d="M11 19.5C15.6944 19.5 19.5 15.6944 19.5 11C19.5 6.30558 15.6944 2.5 11 2.5C6.30558 2.5 2.5 6.30558 2.5 11C2.5 15.6944 6.30558 19.5 11 19.5Z" stroke="black" stroke-width="1.6"/>
<path d="M7.17496 15.25C9.1569 13.1741 12.8217 13.0764 14.825 15.25M13.1208 8.875C13.1208 10.0486 12.168 11 10.9927 11C9.81752 11 8.86473 10.0486 8.86473 8.875C8.86473 7.7014 9.81752 6.75 10.9927 6.75C12.168 6.75 13.1208 7.7014 13.1208 8.875Z" stroke="black" stroke-width="1.6" stroke-linecap="round"/>
</svg>
